<?xml version="1.0" encoding="UTF-8"?>
<svg xmlns="http://www.w3.org/2000/svg" style="display:none">
<symbol id="icon-icon-arrow-back.rtl" viewBox="0 0 24 24">
  <path d="M5 12H18" stroke="currentColor" stroke-width="1.8" stroke-linecap="round"/>
  <path d="M13 7L18 12L13 17" stroke="currentColor" stroke-width="1.8" stroke-linecap="round" stroke-linejoin="round"/>

</symbol>
<symbol id="icon-icon-arrow-back" viewBox="0 0 24 24">
  <path d="M19 12H6" stroke="currentColor" stroke-width="1.8" stroke-linecap="round"/>
  <path d="M11 7L6 12L11 17" stroke="currentColor" stroke-width="1.8" stroke-linecap="round" stroke-linejoin="round"/>

</symbol>
<symbol id="icon-icon-briefcase" viewBox="0 0 24 24">
  <rect x="4" y="7" width="16" height="11" rx="2.5" stroke="currentColor" stroke-width="1.8"/>
  <path d="M9 7V5.75C9 5.06 9.56 4.5 10.25 4.5H13.75C14.44 4.5 15 5.06 15 5.75V7" stroke="currentColor" stroke-width="1.8"/>
  <path d="M4 11.5H20" stroke="currentColor" stroke-width="1.8"/>

</symbol>
<symbol id="icon-icon-chat-bubbles" viewBox="0 0 24 24">
  <path d="M7 16.5H6C4.9 16.5 4 15.6 4 14.5V7C4 5.9 4.9 5 6 5H13C14.1 5 15 5.9 15 7V14.5C15 15.6 14.1 16.5 13 16.5H10L7 19V16.5Z" stroke="currentColor" stroke-width="1.8" stroke-linejoin="round"/>
  <path d="M15 9H18C19.1 9 20 9.9 20 11V16C20 17.1 19.1 18 18 18H16L13.5 20V18" stroke="currentColor" stroke-width="1.8" stroke-linejoin="round"/>

</symbol>
<symbol id="icon-icon-home" viewBox="0 0 24 24">
  <path d="M4 10.5L12 4L20 10.5" stroke="currentColor" stroke-width="1.8" stroke-linecap="round" stroke-linejoin="round"/>
  <path d="M6.5 9.5V19H17.5V9.5" stroke="currentColor" stroke-width="1.8" stroke-linejoin="round"/>
  <path d="M10 19V13H14V19" stroke="currentColor" stroke-width="1.8" stroke-linejoin="round"/>

</symbol>
<symbol id="icon-icon-search" viewBox="0 0 24 24">
  <circle cx="11" cy="11" r="6.25" stroke="currentColor" stroke-width="1.8"/>
  <path d="M16 16L20 20" stroke="currentColor" stroke-width="1.8" stroke-linecap="round"/>

</symbol>
<symbol id="icon-icon-settings" viewBox="0 0 24 24">
  <circle cx="12" cy="12" r="2.75" stroke="currentColor" stroke-width="1.8"/>
  <path d="M12 4.5V6.2" stroke="currentColor" stroke-width="1.8" stroke-linecap="round"/>
  <path d="M12 17.8V19.5" stroke="currentColor" stroke-width="1.8" stroke-linecap="round"/>
  <path d="M19.5 12H17.8" stroke="currentColor" stroke-width="1.8" stroke-linecap="round"/>
  <path d="M6.2 12H4.5" stroke="currentColor" stroke-width="1.8" stroke-linecap="round"/>
  <path d="M17.3 6.7L16.1 7.9" stroke="currentColor" stroke-width="1.8" stroke-linecap="round"/>
  <path d="M7.9 16.1L6.7 17.3" stroke="currentColor" stroke-width="1.8" stroke-linecap="round"/>
  <path d="M17.3 17.3L16.1 16.1" stroke="currentColor" stroke-width="1.8" stroke-linecap="round"/>
  <path d="M7.9 7.9L6.7 6.7" stroke="currentColor" stroke-width="1.8" stroke-linecap="round"/>

</symbol>
<symbol id="icon-icon-user-circle" viewBox="0 0 24 24">
  <circle cx="12" cy="12" r="8" stroke="currentColor" stroke-width="1.8"/>
  <circle cx="12" cy="9" r="2.5" stroke="currentColor" stroke-width="1.8"/>
  <path d="M7.8 17C8.85 15.25 10.3 14.4 12 14.4C13.7 14.4 15.15 15.25 16.2 17" stroke="currentColor" stroke-width="1.8" stroke-linecap="round"/>

</symbol>
<symbol id="icon-placeholder" viewBox="0 0 24 24">
  <rect x="3" y="3" width="18" height="18" rx="2" ry="2" stroke-width="2" />
  <path d="M8 14l2-2 4 4 4-6" stroke-width="2" fill="none" />

</symbol>
</svg>